<?xml version="1.0" encoding="UTF-8" standalone="no"?>

<!-- Created with Inkscape (http://www.inkscape.org/) -->

<svg id="svg2" xmlns:rdf="http://www.w3.org/1999/02/22-rdf-syntax-ns#" xmlns="http://www.w3.org/2000/svg" viewBox="0 0 250 250" version="1.1" xmlns:cc="http://creativecommons.org/ns#" xmlns:dc="http://purl.org/dc/elements/1.1/">

	<title id="title3972">Discat</title>

	<metadata id="metadata7">
		<rdf:RDF>
			<cc:Work rdf:about="">
				<dc:format>image/svg+xml</dc:format>
				<dc:type rdf:resource="http://purl.org/dc/dcmitype/StillImage"/>
				<dc:title>Discat</dc:title>
				<cc:license rdf:resource="http://creativecommons.org/licenses/by/3.0/"/>
				<dc:creator>
					<cc:Agent>
						<dc:title>Trevor Ratliff</dc:title>
					</cc:Agent>
				</dc:creator>
				<dc:date>2014-01-24</dc:date>
			</cc:Work>
			<cc:License rdf:about="http://creativecommons.org/licenses/by/3.0/">
				<cc:permits rdf:resource="http://creativecommons.org/ns#Reproduction"/>
				<cc:permits rdf:resource="http://creativecommons.org/ns#Distribution"/>
				<cc:requires rdf:resource="http://creativecommons.org/ns#Notice"/>
				<cc:requires rdf:resource="http://creativecommons.org/ns#Attribution"/>
				<cc:permits rdf:resource="http://creativecommons.org/ns#DerivativeWorks"/>
			</cc:License>
		</rdf:RDF>
	</metadata>

	<g id="layer7" transform="translate(0,3.9691162e-6)">
		<g id="gDiscat">
			<g id="gHeadBlack" stroke-linejoin="miter" transform="translate(-2,-800.36217)" stroke="#000" stroke-linecap="butt" fill="#000">
				<path id="pathHeadBlack" d="m47.528,858.29c34.658-34.658,112.64-34.658,147.3,0,34.658,34.658,34.658,112.64,0,147.3-34.658,34.658-86.644,25.993-173.29,25.993,0-86.644-8.6644-138.63,25.993-173.29z" stroke-width="0.86644328px"/>
				<path id="pathHeadFurRight" d="m20.992,950.56s-3.2059-10.711-13.057-12.43c6.6451-8.9912,16.496-7.2717,16.496-7.2717s-2.3461-15.636-12.197-17.356c6.6451-8.9912,16.496-7.2717,16.496-7.2717s-2.3461-15.636-12.197-17.356c6.6451-8.9912,16.496-7.2717,16.496-7.2717l9.851,1.7196-12.037,68.957z" stroke-width="1px"/>
				<path id="pathHeadFurLeft" d="m100,1031.9s10.696,3.254,12.372,13.113c9.021-6.6047,7.3457-16.463,7.3457-16.463s15.626,2.4163,17.301,12.275c9.021-6.6047,7.3457-16.463,7.3457-16.463s15.626,2.4163,17.301,12.275c9.021-6.6047,7.3457-16.463,7.3457-16.463l-1.6753-9.8586-69.011,11.727z" stroke-width="1px"/>
				<path id="pathHeadEarRight" d="m95,40c11.217-12.092,17.581-25.508,20-40,15.198,12.761,25.737,25.911,25,40z" transform="translate(0,802.36218)" stroke-width="1px"/>
				<path id="pathHeadEarLeft" d="m208.52,957.88c12.092-11.217,25.508-17.581,40-20-12.761-15.198-25.911-25.737-40-25z" stroke-width="1px"/>
			</g>

			<g id="gHeadColors" stroke-linejoin="miter" stroke-linecap="butt" stroke-width="0.62087125px" transform="translate(0,3.9691162e-6)">
				<path id="pathHeadRed" d="M53.619,75.947c22.575-26.905,78.241-31.775,105.15-9.199,26.9,22.576,31.77,78.242,9.19,105.14-56.99,49.17-90.799,6.96-128.47,35.35,21.418-42.03-26.461-72.97,14.126-131.29z" transform="translate(0,3.9691162e-6)" stroke="#F00" fill="#F00"/>
				<path id="pathHeadBlue" d="m76.209,80.945c26.905-22.576,82.571-17.706,105.15,9.1991,22.576,26.905,17.706,82.571-9.1991,105.15-64.67,38.53-90.635-8.92-132.66,12.5,28.391-37.67-13.387-76.46,36.71-126.84z" transform="translate(0,3.9691162e-6)" stroke="#0080ff" fill="#0080ff"/>
				<path id="pathHeadOrange" d="M67.279,78.612c25.265-24.397,96.471-16.612,101.47-1.612,2.6715,29.098,10.953,67.797-14.311,92.195-61.824,42.94-74.503,14.21-114.93,38.51,25.694-39.56-18.688-75.34,27.772-129.1z" transform="translate(0,3.9691162e-6)" stroke="#ff8000" fill="#ff8000"/>
				<path id="pathHeadGreen" d="M79.594,95.418c23.956-25.687,57.146-23.257,89.156-18.418,20,10,24.584,76.15,0.6313,101.84-59.49,46.12-91.042,2.194-130.15,28.575,23.589-40.848-3.225-55.874,40.358-111.99z" transform="translate(0,3.9691162e-6)" stroke="#008000" fill="#008000"/>
				<path id="pathHeadYellow" d="m73.75,87c24.835-24.835,70-25,96.821-9.0473,13.18,29.047,13.01,69.217-11.82,94.047-61.063,44.02-79.242,10.52-119.24,35.52,25-40-11.273-65.96,34.242-120.52z" stroke="#FF0" fill="#FF0"/>
			</g>

			<g id="gFace" stroke-miterlimit="4" stroke="#000" stroke-linecap="round" stroke-dasharray="none">
				<path id="pathMouth" stroke-linejoin="miter" d="m78.75,137s-5.75,10-0.75,15,15,0,15,0l5-5-5,5s-5,10,0,15,15.75,0,15.75,0" stroke-width="4" fill="none"/>
				<path id="pathNose" stroke-linejoin="round" d="m98,147,0-15,15,15z" stroke-width="2.75" fill="#ffa080"/>

				<g id="gEyeLeft" transform="translate(-11.25,12)">
					<path id="pathEyeLeft" stroke-linejoin="round" d="m180,137.5c0,6.9036-5.5964,12.5-12.5,12.5s-12.5-5.5964-12.5-12.5,5.5964-12.5,12.5-12.5,12.5,5.5964,12.5,12.5z" transform="matrix(1.0344828,0,0.16264422,1.0344828,-40.88944,-7.2413793)" stroke-width="4" fill="#FF0"/>
					<path id="pathEyeIrisLeft" stroke-linejoin="miter" d="M148.16,141.84c1.84-6.84,6.84-11.84,13.18-13.18-1.34,6.34-6.34,11.34-13.18,13.18" stroke-width="1.31818175" fill="#000"/>
				</g>

				<g id="gEyeRight" transform="translate(-61.25,-33)">
					<path id="pathEyeRight" stroke-linejoin="round" d="m180,137.5c0,6.9036-5.5964,12.5-12.5,12.5s-12.5-5.5964-12.5-12.5,5.5964-12.5,12.5-12.5,12.5,5.5964,12.5,12.5z" transform="matrix(1.0344828,0,0.16264422,1.0344828,-40.88944,-7.2413793)" stroke-width="4" fill="#FF0"/>
					<path id="pathEyeIrisRight" stroke-linejoin="miter" d="M148.16,141.84c1.84-6.84,6.84-11.84,13.18-13.18-1.34,6.34-6.34,11.34-13.18,13.18" stroke-width="1.31818175" fill="#000"/>
				</g>
			</g>
		</g>
	</g>
</svg>
